<?xml version="1.0" encoding="utf-8"?>
<!-- Generator: Adobe Illustrator 22.0.1, SVG Export Plug-In . SVG Version: 6.00 Build 0)  -->
<!DOCTYPE svg PUBLIC "-//W3C//DTD SVG 1.1//EN" "http://www.w3.org/Graphics/SVG/1.1/DTD/svg11.dtd">
<svg version="1.1" id="Layer_1" xmlns="http://www.w3.org/2000/svg" xmlns:xlink="http://www.w3.org/1999/xlink" x="0px" y="0px"
	 width="223.2px" height="110.1px" viewBox="0 0 223.2 110.1" style="enable-background:new 0 0 223.2 110.1;" xml:space="preserve"
	>
<style type="text/css">
	.st0{stroke:#000000;stroke-width:1.98;}
	.st1{fill:#808080;}
	.st2{fill:#FFFFFF;}
</style>
<ellipse class="st0" cx="111.6" cy="55" rx="110.6" ry="54"/>
<path class="st1" d="M173.5,21.3c3.6-1.4,7.2-1.8,10.3-1.8c8.4,0,16,5.6,16,13.9c0,7.4-8.2,12.1-14.4,12.1c-4.9,0-7.8-0.8-10.2-2.2
	c-1.5-1-1.5-1.3-1.5-1.4c0.1,0,0.4,0,1.4,0.7c1.5,1,5.3,2.2,9.6,2.2c7.2,0,14.2-4.5,14.2-11.3c0-8.5-9.2-11.1-15.3-11.1
	c-3.5,0-6.6,0.4-8.8,1c1,1.8,1.7,4.5,1.7,6.8c0,9.8-10.7,14.8-19.9,14.8c-8.9,0-16.6-4.5-16.6-11.8c0-6.8,6-9.9,10.5-9.9
	c5,0,9.3,2.5,11.8,7c2.8-3.8,6.4-6.4,10-8.2c-3.6-3.9-9.3-5.4-16.6-5.4c-10.5,0-18.1,4.6-24,11c-1.3,1.4-1.5,1.5-1.7,1.5
	c-0.1-0.1,0-0.6,0.8-1.5c4-5.3,13.1-13.9,25.2-13.9C166.3,13.6,170.9,18.1,173.5,21.3z M156.4,44.1c11.7,0,19.2-6.7,19.2-13.2
	c0-2.8-0.7-5.3-2-7.2c-2.4,0.7-7.9,3.2-11.1,7c0.4,0.7,0.8,1.7,0.8,2.6c0,1.3-0.8,2.4-1.4,2.4c-0.7,0-1.5-1.1-1.5-2.2
	c0-0.7,0.7-2,1.4-2.8c-1.7-3.1-5.3-5.9-11.1-5.9c-4.5,0-9.6,3.5-9.6,8.8C141,40.4,149,44.1,156.4,44.1z"/>
<path class="st2" d="M40.9,81.3c1.1,0,1.3-0.2,1.3-1.4v-6.4c0-1.2-0.2-1.4-1.3-1.4v-0.4H45v0.4c-1.1,0-1.3,0.2-1.3,1.4v2.6h3.9v-2.6
	c0-1.2-0.2-1.4-1.3-1.4v-0.4h4.2v0.4c-1.1,0-1.3,0.2-1.3,1.4v6.4c0,1.2,0.2,1.4,1.3,1.4v0.4h-4.2v-0.4c1,0,1.3-0.2,1.3-1.4v-3.1
	h-3.9v3.1c0,1.2,0.2,1.4,1.3,1.4v0.4h-4.2V81.3z"/>
<path class="st2" d="M52.4,81.3c1.1,0,1.3-0.2,1.3-1.4v-6.4c0-1.2-0.2-1.4-1.3-1.4v-0.4h4.2v0.4c-1,0-1.3,0.2-1.3,1.4v6.4
	c0,1.2,0.2,1.4,1.3,1.4v0.4h-4.2V81.3z"/>
<path class="st2" d="M64.5,74.2c-0.1-0.8-0.5-1.9-2.1-1.9c-1.2,0-1.9,0.6-1.9,1.4c0,1.5,2.5,2.1,3.6,3c0.7,0.6,1.2,1.2,1.2,2.2
	c0,2.1-1.6,2.9-3.9,2.9c-1.2,0-2.1-0.3-2.6-0.4L58.8,79h0.4c0.2,0.8,0.5,2.1,2.5,2.1c1.3,0,2-0.7,2-1.6c0-1.5-1.7-2-3.1-2.9
	c-0.9-0.6-1.6-1.3-1.6-2.5c0-1.6,1.2-2.5,3.4-2.5c1,0,2,0.2,2.4,0.3l0.1,2.3H64.5z"/>
<path class="st2" d="M69,81.3c1,0,1.3-0.2,1.3-1.4v-7.5h-0.6c-1.6,0-1.9,0.5-2,1.6h-0.4l0.1-2.3h7.6l0.1,2.3h-0.4
	c-0.1-1.1-0.5-1.6-2-1.6h-0.6v7.5c0,1.2,0.2,1.4,1.3,1.4v0.4H69V81.3z"/>
<path class="st2" d="M78.6,76.8c0-2.3,0.3-4.4,2.3-4.4c2,0,2.3,2.1,2.3,4.4c0,2.3-0.3,4.4-2.3,4.4C78.9,81.1,78.6,79.1,78.6,76.8z
	 M80.9,81.8c3.1,0,4.1-1.9,4.1-5.1c0-3.2-1-5.1-4.1-5.1c-3.1,0-4.1,1.9-4.1,5.1C76.8,79.9,77.8,81.8,80.9,81.8z"/>
<path class="st2" d="M89.8,73.6c0-0.8,0.1-1.1,0.9-1.1c1.2,0,2.1,0.4,2.1,2c0,1.4-0.8,1.9-2.1,1.9h-0.9V73.6z M87,81.7h4.2v-0.4
	c-1.1,0-1.3-0.2-1.3-1.4v-2.9h0.9l2.6,4.6h2.3v-0.4c-0.8,0-1-0.4-1.5-1.3l-1.8-3.1c1.2-0.3,2.2-0.7,2.2-2.6c0-2-2-2.5-3.8-2.5H87
	v0.4c1.1,0,1.3,0.2,1.3,1.4v6.4c0,1.2-0.2,1.4-1.3,1.4V81.7z"/>
<path class="st2" d="M97,81.3c1.1,0,1.3-0.2,1.3-1.4v-6.4c0-1.2-0.2-1.4-1.3-1.4v-0.4h4.2v0.4c-1,0-1.3,0.2-1.3,1.4v6.4
	c0,1.2,0.2,1.4,1.3,1.4v0.4H97V81.3z"/>
<path class="st2" d="M110.5,81.3c-0.5,0.2-1.3,0.6-2.9,0.6c-3.2,0-4.4-1.9-4.4-5.3c0-2.7,0.8-4.9,4.1-4.9c1.3,0,2.3,0.2,3,0.4
	l0.1,2.5h-0.4c-0.1-0.8-0.9-2.2-2.5-2.2c-2.2,0-2.5,2.3-2.5,4.2c0,2.3,0.8,4.5,2.9,4.5c1.4,0,2.1-0.4,2.6-0.8V81.3z"/>
<path class="st2" d="M117.1,73.5l1.6,4.5h-3.3L117.1,73.5z M112,81.7h3.6v-0.4c-0.8,0-1.1-0.1-1.1-0.6c0-0.2,0.1-0.4,0.1-0.6
	l0.6-1.5h3.8l0.6,1.6c0.1,0.2,0.1,0.4,0.1,0.5c0,0.5-0.5,0.5-1.1,0.5v0.4h4.2v-0.4c-1,0-1.4-0.3-1.8-1.4l-3-8.2h-1.2l-3,8
	c-0.5,1.2-0.8,1.6-1.9,1.6V81.7z"/>
<path class="st2" d="M124,81.3c1,0,1.3-0.2,1.3-1.4v-6.4c0-1.2-0.2-1.4-1.3-1.4v-0.4h4.2v0.4c-1,0-1.3,0.2-1.3,1.4v6.4
	c0,0.8,0.1,1.1,1,1.1h1.1c1.2,0,1.6-0.5,1.9-1.7h0.4l-0.1,2.3H124V81.3z"/>
<path class="st2" d="M145.2,74.2c-0.1-0.8-0.5-1.9-2.1-1.9c-1.2,0-1.9,0.6-1.9,1.4c0,1.5,2.5,2.1,3.6,3c0.7,0.6,1.2,1.2,1.2,2.2
	c0,2.1-1.6,2.9-3.9,2.9c-1.2,0-2.1-0.3-2.6-0.4l-0.1-2.5h0.4c0.2,0.8,0.5,2.1,2.5,2.1c1.3,0,2-0.7,2-1.6c0-1.5-1.7-2-3.1-2.9
	c-0.9-0.6-1.6-1.3-1.6-2.5c0-1.6,1.2-2.5,3.4-2.5c1,0,2,0.2,2.4,0.3l0.1,2.3H145.2z"/>
<path class="st2" d="M149.8,76.8c0-2.3,0.3-4.4,2.3-4.4c2,0,2.3,2.1,2.3,4.4c0,2.3-0.3,4.4-2.3,4.4
	C150.1,81.1,149.8,79.1,149.8,76.8z M152.1,81.8c3.1,0,4.1-1.9,4.1-5.1c0-3.2-1-5.1-4.1-5.1c-3.1,0-4.1,1.9-4.1,5.1
	C148.1,79.9,149,81.8,152.1,81.8z"/>
<path class="st2" d="M165.4,81.3c-0.5,0.2-1.3,0.6-2.9,0.6c-3.2,0-4.4-1.9-4.4-5.3c0-2.7,0.8-4.9,4.1-4.9c1.3,0,2.3,0.2,3,0.4
	l0.1,2.5h-0.4c-0.1-0.8-0.9-2.2-2.5-2.2c-2.2,0-2.5,2.3-2.5,4.2c0,2.3,0.8,4.5,2.9,4.5c1.4,0,2.1-0.4,2.6-0.8V81.3z"/>
<path class="st2" d="M167.3,81.3c1.1,0,1.3-0.2,1.3-1.4v-6.4c0-1.2-0.2-1.4-1.3-1.4v-0.4h4.2v0.4c-1,0-1.3,0.2-1.3,1.4v6.4
	c0,1.2,0.2,1.4,1.3,1.4v0.4h-4.2V81.3z"/>
<path class="st2" d="M173.1,81.3c1,0,1.3-0.2,1.3-1.4v-6.4c0-1.2-0.2-1.4-1.3-1.4v-0.4h7l0.1,2.2h-0.4c-0.1-0.8-0.3-1.5-1.9-1.5h-1
	c-0.7,0-0.9,0.2-0.9,1.1v2.6h1.9c1,0,1.1-0.2,1.1-1.2h0.4v3.1H179c0-0.9-0.1-1.2-1.1-1.2H176v3.1c0,1,0.1,1.1,0.9,1.1h1.4
	c1.3,0,1.7-0.5,1.7-1.5h0.4l-0.1,2.2h-7.2V81.3z"/>
<path class="st2" d="M184,81.3c1,0,1.3-0.2,1.3-1.4v-7.5h-0.6c-1.6,0-1.9,0.5-2,1.6h-0.4l0.1-2.3h7.6l0.1,2.3h-0.4
	c-0.1-1.1-0.5-1.6-2-1.6h-0.6v7.5c0,1.2,0.2,1.4,1.3,1.4v0.4H184V81.3z"/>
<path class="st2" d="M193.7,81.3c1,0,1.3-0.2,1.3-1.4v-2.9l-2.3-3.8c-0.5-0.9-0.8-1.1-1.9-1.1v-0.4h4.5v0.4c-0.6,0-1,0-1,0.4
	c0,0.2,0.1,0.4,0.3,0.7l1.7,2.8l1.7-2.8c0.2-0.3,0.3-0.5,0.3-0.7c0-0.4-0.3-0.4-1-0.4v-0.4h3.5v0.4c-1.1,0-1.4,0.3-1.9,1.1l-2.4,3.8
	v2.9c0,1.2,0.2,1.4,1.3,1.4v0.4h-4.2V81.3z"/>
<path class="st1" d="M21.6,67.1c-2,0.8-4,1-5.7,1c-4.6,0-8.8-3.1-8.8-7.7c0-4.1,4.5-6.7,8-6.7c2.7,0,4.3,0.5,5.6,1.2
	c0.8,0.5,0.8,0.7,0.8,0.8c-0.1,0-0.2,0-0.8-0.4c-0.8-0.5-2.9-1.2-5.3-1.2c-4,0-7.8,2.5-7.8,6.2c0,4.7,5.1,6.1,8.5,6.1
	c1.9,0,3.6-0.2,4.8-0.5c-0.5-1-0.9-2.5-0.9-3.8c0-5.4,5.9-8.1,11-8.1c4.9,0,9.1,2.5,9.1,6.5c0,3.8-3.3,5.5-5.8,5.5
	c-2.8,0-5.1-1.4-6.5-3.8c-1.5,2.1-3.5,3.5-5.5,4.5c2,2.2,5.1,3,9.1,3c5.8,0,10-2.5,13.2-6.1c0.7-0.8,0.8-0.8,0.9-0.8
	c0.1,0.1,0,0.3-0.5,0.8c-2.2,2.9-7.2,7.7-13.9,7.7C25.6,71.4,23,68.9,21.6,67.1z M31,54.5c-6.5,0-10.6,3.7-10.6,7.3
	c0,1.5,0.4,2.9,1.1,4c1.3-0.4,4.4-1.8,6.1-3.8c-0.2-0.4-0.5-0.9-0.5-1.5c0-0.7,0.5-1.3,0.8-1.3c0.4,0,0.8,0.6,0.8,1.2
	c0,0.4-0.4,1.1-0.8,1.5c0.9,1.7,2.9,3.2,6.1,3.2c2.5,0,5.3-1.9,5.3-4.8C39.5,56.6,35.1,54.5,31,54.5z"/>
<path class="st2" d="M44.7,43.6c0.5-5.8,0.9-7.6,2.2-10.5c2.2-0.1,5.2,1.4,5.6,4.9c0.2,1.5-0.2,3.4-1.2,4.7
	c-1.4,1.9-4.3,2.6-6.8,2.8L44.7,43.6z M40,60.6l-3.9,0.5l0,0.7l9.1-1.1c3.4-0.4,7.8-1,10.5-4.3c1.6-2,1.7-4,1.5-5.3
	c-0.3-2.9-2.3-4.7-4.5-5.5c-1.3-0.4-2.3-0.4-3.5-0.4c1.3-0.2,2.3-0.5,3.7-1.3c0.8-0.6,2.7-1.9,3.1-4.4c0.1-0.6,0.1-1.2,0.1-1.8
	c-0.1-0.6-0.4-2.4-2-3.7c-2.1-1.7-4.8-1.7-6.8-1.7c1.2-2.1,1.5-2.5,2.9-4l-0.4-0.3c-2.4,2-2.6,2.3-4.5,4.5c-2.4,0.5-6.7,1.4-9.9,5.5
	c-2.2,2.7-2.8,5.8-2.5,8.3c0.3,2.5,1.6,4.8,3.4,6.1c1.4,1.1,2.7,1.4,4.1,1.8L40,60.6z M43.8,54.1c2.7-0.4,3.9-0.8,6.2-2.3l-0.3-0.5
	c-2.3,1.4-3.7,1.9-5.8,2.1l0.6-7.3c2.2-0.2,6.2-0.7,8.1,2.7c0.3,0.7,0.6,1.5,0.7,2.4c0.3,2.3-0.4,5.4-3.4,7.4
	c-2.3,1.4-5.4,1.7-6.6,1.8L43.8,54.1z M40.6,53.3c-1.4-0.3-2.4-0.5-3.7-1.5c-1.7-1.2-2.9-3.2-3.2-5.7c-0.3-2.6,0.5-5.6,2.4-8.1
	c3-3.7,6.9-4.5,8.8-4.9c-2.8,4.4-3.3,8.1-3.6,13.2L40.6,53.3z"/>
<path class="st2" d="M75.1,39.6c-0.2,2.9-0.3,4.6-1,7.9c-1.3,5.3-3.3,9.7-5.8,10c-1.6,0.2-3.1-1.3-3.5-4.2c-0.3-2.8,0.4-9,5.2-12.1
	c1.4-0.9,2.8-1.3,3.9-1.4C74.3,39.6,74.7,39.6,75.1,39.6z M73.9,53c-0.1,0.5-0.1,1.1,0,1.6c0.3,2.4,2.2,3.1,3.6,2.9
	c2.4-0.3,3.1-2.5,3.5-5.4L80.5,52c-0.2,1.7-0.7,4.2-2.2,4.4c-1.3,0.2-1.4-1.3-1.5-1.5c-0.1-0.6,0-1.1,0.1-2.3l1.3-13.3
	c-1.4-0.3-2.6-0.4-4.4-0.2c-2.5,0.3-6.7,1.5-9.5,5.1c-1.9,2.4-2.9,5.8-2.6,8.8c0.4,3.5,2.7,6,5.6,5.6c4.2-0.5,5.7-5.2,7-9.5L73.9,53
	z"/>
<path class="st2" d="M89.6,26.9c-0.9,10.7-1.2,13.4-2.4,24.3C87,52.6,87,53,87.1,53.5c0.1,1.2,1,1.6,1.5,1.5
	c1.3-0.2,1.8-2.1,2.3-4.4l0.6,0c-0.5,2.7-1.1,5.1-3.7,5.4c-1.5,0.2-3.3-0.7-3.5-2.9c-0.1-0.7,0-1.5,0.1-2.2
	c1.2-10.4,1.4-12.5,2.3-22.6l-3.3,0.9l-0.1-0.6L89.6,26.9z"/>
<path class="st2" d="M100.2,25.6c-0.9,10.7-1.2,13.4-2.4,24.3c-0.2,1.4-0.2,1.8-0.1,2.3c0.1,1.2,1,1.6,1.5,1.5
	c1.3-0.2,1.8-2.1,2.3-4.4l0.6,0c-0.5,2.7-1.1,5.1-3.7,5.4c-1.5,0.2-3.3-0.7-3.5-2.9c-0.1-0.7,0-1.5,0.1-2.2
	c1.2-10.4,1.4-12.5,2.3-22.6l-3.3,0.9l-0.1-0.6L100.2,25.6z"/>
<path class="st2" d="M117.8,34.5c-0.2,2.8-0.3,4.6-1,7.9c-1.3,5.3-3.3,9.7-5.8,10c-1.6,0.2-3.1-1.3-3.5-4.2c-0.3-2.8,0.4-9,5.2-12.1
	c1.4-0.9,2.8-1.3,3.9-1.4C117,34.5,117.4,34.5,117.8,34.5z M116.6,47.9c-0.1,0.5-0.1,1.1,0,1.6c0.3,2.4,2.2,3.1,3.6,2.9
	c2.4-0.3,3.1-2.5,3.5-5.4l-0.6-0.1c-0.2,1.7-0.7,4.2-2.2,4.4c-1.3,0.2-1.4-1.3-1.5-1.5c-0.1-0.6,0-1.1,0.1-2.3l1.3-13.3
	c-1.4-0.3-2.6-0.4-4.4-0.2c-2.5,0.3-6.7,1.5-9.6,5.1c-1.9,2.4-2.9,5.8-2.6,8.8c0.4,3.5,2.7,6,5.6,5.6c4.2-0.5,5.7-5.2,7-9.5
	L116.6,47.9z"/>
<path class="st2" d="M130.8,42.7c1.2-4.5,3.6-11.1,6.9-11.5c1.3-0.2,2.5,0.8,2.6,1.9c0.1,1.1-0.6,2.2-1.9,2.4
	c-1.2,0.1-2.2-0.6-2.4-2c0-0.3,0-0.5,0-0.8c-4.7,5.4-5.6,14-6,17.7l-2.9,0.4l1.5-17.2l-3.3,0.9l-0.1-0.6l6.6-1.8L130.8,42.7z"/>
<path class="st2" d="M156.2,29.8c-0.6,6.2-0.9,9.3-3,13.8c-1,2.1-2.3,4-4.2,4.2c-1.8,0.2-3.5-1-3.9-4.1c-0.6-5,2.1-12.9,9.5-13.7
	C155.1,29.8,155.6,29.8,156.2,29.8z M153.6,20.1l0.1,0.6l3.4-0.8l-0.8,9.4c-0.8,0-1.5,0.1-2.2,0.1c-7.8,0.9-13,7.3-12.2,14.1
	c0.6,4.6,3.8,5.7,6,5.4c4.7-0.6,6.2-5.6,7.4-9.7l-0.2,3.2c-0.1,0.9-0.1,1.7-0.1,2.4c0.3,2.6,2.5,3,3.6,2.8c2.6-0.3,3-2.5,3.6-5.4
	l-0.6-0.1c-0.3,2.1-0.9,4.2-2.2,4.4c-1.3,0.2-1.4-1.1-1.5-1.5c-0.1-0.4-0.1-0.9,0-2.2l2.3-24.6L153.6,20.1z"/>
</svg>
